<svg class="svg-icon" style="width: 1em; height: 1em;vertical-align: middle;fill: currentColor;overflow: hidden;" viewBox="0 0 1024 1024" version="1.1" xmlns="http://www.w3.org/2000/svg"><path d="M103.4 648.2c0 32.2 26.2 58.4 58.4 58.4h700.6c32.2 0 58.4-26.2 58.4-58.4V259c0-32.2-26.2-58.4-58.4-58.4H161.8c-32.2 0-58.4 26.2-58.4 58.4v389.2z" fill="#FFFFFF" /><path d="M862.2 200.6h-58.4c32.2 0 58.4 26.2 58.4 58.4v389.2c0 32.2-26.2 58.4-58.4 58.4h58.4c32.2 0 58.4-26.2 58.4-58.4V259c0-32.2-26.2-58.4-58.4-58.4zM161.8 706.6h58.4c-32.2 0-58.4-26.2-58.4-58.4V259c0-32.2 26.2-58.4 58.4-58.4H161.8c-32.2 0-58.4 26.2-58.4 58.4v389.2c0 32.2 26.2 58.4 58.4 58.4z" fill="#E6E7E8" /><path d="M862.2 716.2H161.8c-37.6 0-68.2-30.6-68.2-68.2V259c0-37.6 30.6-68.2 68.2-68.2h700.6c37.6 0 68.2 30.6 68.2 68.2v389.2c-0.2 37.6-30.8 68-68.4 68zM161.8 210.4c-26.8 0-48.6 21.8-48.6 48.6v389.2c0 26.8 21.8 48.6 48.6 48.6h700.6c26.8 0 48.6-21.8 48.6-48.6V259c0-26.8-21.8-48.6-48.6-48.6H161.8z" fill="#402943" /><path d="M103.4 278.6h817.2v350.2H103.4z" fill="#59C3F0" /><path d="M862.2 278.4h58.4v350.2h-58.4z" fill="#21A0D6" /><path d="M103.4 278.4h58.4v350.2H103.4z" fill="#96DCFA" /><path d="M920.6 638.4H103.4c-5.4 0-9.8-4.4-9.8-9.8v-350c0-5.4 4.4-9.8 9.8-9.8h817.2c5.4 0 9.8 4.4 9.8 9.8v350.2c0 5.4-4.4 9.6-9.8 9.6z m-807.4-19.4h797.8V288.2H113.2v330.8z" fill="#402943" /><path d="M453.6 706.6h116.8v77.8h-116.8z" fill="#FFFFFF" /><path d="M453.6 706.6h116.8v39h-116.8z" fill="#E6E7E8" /><path d="M570.4 794.2h-116.8c-5.4 0-9.8-4.4-9.8-9.8v-77.8c0-5.4 4.4-9.8 9.8-9.8h116.8c5.4 0 9.8 4.4 9.8 9.8v77.8c0 5.4-4.4 9.8-9.8 9.8z m-107-19.6h97.2v-58.4h-97.2v58.4z" fill="#402943" /><path d="M317.4 784.4h389.2v39H317.4z" fill="#FFFFFF" /><path d="M667.6 784.4h39v39h-39zM317.4 784.4h39v39h-39z" fill="#E6E7E8" /><path d="M706.6 833H317.4c-5.4 0-9.8-4.4-9.8-9.8v-39c0-5.4 4.4-9.8 9.8-9.8h389.2c5.4 0 9.8 4.4 9.8 9.8v39c0 5.4-4.4 9.8-9.8 9.8z m-379.4-19.4h369.8v-19.4H327.2v19.4z" fill="#402943" /><path d="M220.2 443.8c-2.4 0-5-1-6.8-2.8L174.4 402c-1.8-1.8-2.8-4.2-2.8-6.8 0-2.6 1-5 2.8-6.8l39-39c3.8-3.8 10-3.8 13.8 0 3.8 3.8 3.8 10 0 13.8l-32 32 32 32c3.8 3.8 3.8 10 0 13.8-2 2-4.6 2.8-7 2.8zM336.8 443.8c-2.4 0-5-1-6.8-2.8-3.8-3.8-3.8-10 0-13.8l32-32-32-32c-3.8-3.8-3.8-10 0-13.8 3.8-3.8 10-3.8 13.8 0l39 39c1.8 1.8 2.8 4.2 2.8 6.8 0 2.6-1 5-2.8 6.8l-39 39c-2 2-4.4 2.8-7 2.8zM259 443.8c-1.4 0-3-0.4-4.4-1-4.8-2.4-6.8-8.2-4.4-13l39-77.8c2.4-4.8 8.2-6.8 13-4.4 4.8 2.4 6.8 8.2 4.4 13l-39 77.8c-1.6 3.6-5 5.4-8.6 5.4z" fill="#402943" /><path d="M706.6 366H434.2c-5.4 0-9.8-4.4-9.8-9.8s4.4-9.8 9.8-9.8h272.4c5.4 0 9.8 4.4 9.8 9.8s-4.4 9.8-9.8 9.8zM823.4 424.4H551c-5.4 0-9.8-4.4-9.8-9.8s4.4-9.8 9.8-9.8h272.4c5.4 0 9.8 4.4 9.8 9.8-0.2 5.4-4.4 9.8-9.8 9.8zM823.4 366h-77.8c-5.4 0-9.8-4.4-9.8-9.8s4.4-9.8 9.8-9.8h77.8c5.4 0 9.8 4.4 9.8 9.8-0.2 5.4-4.4 9.8-9.8 9.8zM512 424.4h-77.8c-5.4 0-9.8-4.4-9.8-9.8s4.4-9.8 9.8-9.8H512c5.4 0 9.8 4.4 9.8 9.8s-4.4 9.8-9.8 9.8z" fill="#402943" /><path d="M628.8 512H395.2c-53.8 0-97.2 43.6-97.2 97.2 0 53.8 43.6 97.2 97.2 97.2 39.8 0 74.2-24 89.2-58.4h55.2c15 34.4 49.2 58.4 89.2 58.4 53.8 0 97.2-43.6 97.2-97.2S682.4 512 628.8 512z" fill="#FFFFFF" /><path d="M628.8 687c-39.8 0-74.2-24-89.2-58.4h-55.2c-15 34.4-49.2 58.4-89.2 58.4-50.4 0-92-38.4-96.8-87.6-0.4 3.2-0.4 6.4-0.4 9.8 0 53.8 43.6 97.2 97.2 97.2 39.8 0 74.2-24 89.2-58.4h55.2c15 34.4 49.2 58.4 89.2 58.4 53.8 0 97.2-43.6 97.2-97.2 0-3.2-0.2-6.6-0.4-9.8-5 49.4-46.4 87.6-96.8 87.6z" fill="#E6E7E8" /><path d="M395.2 716.2c-59 0-107-48-107-107s48-107 107-107h233.4c59 0 107 48 107 107s-48 107-107 107c-40.4 0-77.2-22.8-95.4-58.4h-42.8c-18 35.8-54.8 58.4-95.2 58.4z m0-194.4c-48.2 0-87.6 39.2-87.6 87.6s39.2 87.6 87.6 87.6c34.8 0 66.4-20.6 80.2-52.6 1.6-3.6 5-5.8 9-5.8h55.2c3.8 0 7.4 2.2 9 5.8 14 32 45.4 52.6 80.2 52.6 48.2 0 87.6-39.2 87.6-87.6 0-48.2-39.2-87.6-87.6-87.6H395.2z" fill="#402943" /><path d="M492.6 473h39V512h-39z" fill="#E6E7E8" /><path d="M492.6 492.6h39v19.4h-39z" fill="#BCBEC0" /><path d="M531.4 521.8h-39c-5.4 0-9.8-4.4-9.8-9.8v-39c0-5.4 4.4-9.8 9.8-9.8h39c5.4 0 9.8 4.4 9.8 9.8V512c0 5.4-4.4 9.8-9.8 9.8z m-29.2-19.6h19.4v-19.4h-19.4v19.4z" fill="#402943" /><path d="M628.8 609.2m-58.4 0a58.4 58.4 0 1 0 116.8 0 58.4 58.4 0 1 0-116.8 0Z" fill="#E6E7E8" /><path d="M628.8 550.8c-3.4 0-6.6 0.2-9.8 0.8 27.6 4.6 48.6 28.6 48.6 57.6s-21 53-48.6 57.6c3.2 0.6 6.4 0.8 9.8 0.8 32.2 0 58.4-26.2 58.4-58.4s-26.2-58.4-58.4-58.4z" fill="#BCBEC0" /><path d="M628.8 672.6c-34.8 0-63.2-28.4-63.2-63.2 0-34.8 28.4-63.2 63.2-63.2 34.8 0 63.2 28.4 63.2 63.2 0 34.8-28.4 63.2-63.2 63.2z m0-116.8c-29.6 0-53.6 24-53.6 53.6s24 53.6 53.6 53.6 53.6-24 53.6-53.6c-0.2-29.6-24.2-53.6-53.6-53.6z" fill="#402943" /><path d="M628.8 580m-9.8 0a9.8 9.8 0 1 0 19.6 0 9.8 9.8 0 1 0-19.6 0Z" fill="#59C3F0" /><path d="M628.8 594.6c-8 0-14.6-6.6-14.6-14.6s6.6-14.6 14.6-14.6 14.6 6.6 14.6 14.6c0 8.2-6.6 14.6-14.6 14.6z m0-19.4c-2.6 0-4.8 2.2-4.8 4.8 0 2.6 2.2 4.8 4.8 4.8 2.6 0 4.8-2.2 4.8-4.8 0-2.6-2.2-4.8-4.8-4.8z" fill="#402943" /><path d="M628.8 638.4m-9.8 0a9.8 9.8 0 1 0 19.6 0 9.8 9.8 0 1 0-19.6 0Z" fill="#4AB5AC" /><path d="M628.8 653c-8 0-14.6-6.6-14.6-14.6s6.6-14.6 14.6-14.6 14.6 6.6 14.6 14.6-6.6 14.6-14.6 14.6z m0-19.4c-2.6 0-4.8 2.2-4.8 4.8 0 2.6 2.2 4.8 4.8 4.8 2.6 0 4.8-2.2 4.8-4.8 0-2.6-2.2-4.8-4.8-4.8z" fill="#402943" /><path d="M658 609.2m-9.8 0a9.8 9.8 0 1 0 19.6 0 9.8 9.8 0 1 0-19.6 0Z" fill="#F05458" /><path d="M658 623.8c-8 0-14.6-6.6-14.6-14.6s6.6-14.6 14.6-14.6 14.6 6.6 14.6 14.6c0 8.2-6.6 14.6-14.6 14.6z m0-19.4c-2.6 0-4.8 2.2-4.8 4.8 0 2.6 2.2 4.8 4.8 4.8 2.6 0 4.8-2.2 4.8-4.8 0-2.6-2.2-4.8-4.8-4.8z" fill="#402943" /><path d="M599.6 609.2m-9.8 0a9.8 9.8 0 1 0 19.6 0 9.8 9.8 0 1 0-19.6 0Z" fill="#FCD64B" /><path d="M599.6 623.8c-8 0-14.6-6.6-14.6-14.6s6.6-14.6 14.6-14.6 14.6 6.6 14.6 14.6c0 8.2-6.6 14.6-14.6 14.6z m0-19.4c-2.6 0-4.8 2.2-4.8 4.8 0 2.6 2.2 4.8 4.8 4.8 2.6 0 4.8-2.2 4.8-4.8 0-2.6-2.2-4.8-4.8-4.8z" fill="#402943" /><path d="M395.2 609.2m-58.4 0a58.4 58.4 0 1 0 116.8 0 58.4 58.4 0 1 0-116.8 0Z" fill="#E6E7E8" /><path d="M395.2 550.8c-3.4 0-6.6 0.2-9.8 0.8 27.6 4.6 48.6 28.6 48.6 57.6s-21 53-48.6 57.6c3.2 0.6 6.4 0.8 9.8 0.8 32.2 0 58.4-26.2 58.4-58.4s-26.2-58.4-58.4-58.4z" fill="#BCBEC0" /><path d="M395.2 672.6c-34.8 0-63.2-28.4-63.2-63.2 0-34.8 28.4-63.2 63.2-63.2 34.8 0 63.2 28.4 63.2 63.2 0 34.8-28.2 63.2-63.2 63.2z m0-116.8c-29.6 0-53.6 24-53.6 53.6s24 53.6 53.6 53.6 53.6-24 53.6-53.6-24-53.6-53.6-53.6z" fill="#402943" /><path d="M385.6 570.4h19.4v77.8h-19.4z" fill="#402943" /><path d="M356.4 599.6h77.8v19.4h-77.8z" fill="#402943" /><path d="M521.8 599.6h-19.4c-5.4 0-9.8-4.4-9.8-9.8s4.4-9.8 9.8-9.8h19.4c5.4 0 9.8 4.4 9.8 9.8-0.2 5.4-4.4 9.8-9.8 9.8z" fill="#402943" /></svg>